<svg width="83" height="191" viewBox="0 0 83 191" fill="none" xmlns="http://www.w3.org/2000/svg">
<path d="M2.12 186.74C3.29084 186.74 4.23999 187.689 4.23999 188.86C4.23999 190.031 3.29084 190.98 2.12 190.98C0.949151 190.98 0 190.031 0 188.86C0 187.689 0.949151 186.74 2.12 186.74Z" fill="white"/>
<path d="M21.2196 186.74C22.3904 186.74 23.3396 187.689 23.3396 188.86C23.3396 190.031 22.3904 190.98 21.2196 190.98C20.0488 190.98 19.0996 190.031 19.0996 188.86C19.0996 187.689 20.0488 186.74 21.2196 186.74Z" fill="white"/>
<path d="M40.3192 186.74C41.4901 186.74 42.4392 187.689 42.4392 188.86C42.4392 190.031 41.4901 190.98 40.3192 190.98C39.1484 190.98 38.1992 190.031 38.1992 188.86C38.1992 187.689 39.1484 186.74 40.3192 186.74Z" fill="white"/>
<path d="M59.4208 186.74C60.5917 186.74 61.5408 187.689 61.5408 188.86C61.5408 190.031 60.5917 190.98 59.4208 190.98C58.25 190.98 57.3008 190.031 57.3008 188.86C57.3008 187.689 58.25 186.74 59.4208 186.74Z" fill="white"/>
<path d="M80.6404 188.86C80.6404 187.69 79.6904 186.74 78.5204 186.74C77.3504 186.74 76.4004 187.69 76.4004 188.86C76.4004 190.03 77.3504 190.98 78.5204 190.98C79.6904 190.98 80.6404 190.03 80.6404 188.86Z" fill="white"/>
<path d="M2.12 169.76C3.29084 169.76 4.23999 170.709 4.23999 171.88C4.23999 173.051 3.29084 174 2.12 174C0.949151 174 0 173.051 0 171.88C0 170.709 0.949151 169.76 2.12 169.76Z" fill="white"/>
<path d="M21.2196 169.76C22.3904 169.76 23.3396 170.709 23.3396 171.88C23.3396 173.051 22.3904 174 21.2196 174C20.0488 174 19.0996 173.051 19.0996 171.88C19.0996 170.709 20.0488 169.76 21.2196 169.76Z" fill="white"/>
<path d="M40.3192 169.76C41.4901 169.76 42.4392 170.709 42.4392 171.88C42.4392 173.051 41.4901 174 40.3192 174C39.1484 174 38.1992 173.051 38.1992 171.88C38.1992 170.709 39.1484 169.76 40.3192 169.76Z" fill="white"/>
<path d="M59.4208 169.76C60.5917 169.76 61.5408 170.709 61.5408 171.88C61.5408 173.051 60.5917 174 59.4208 174C58.25 174 57.3008 173.051 57.3008 171.88C57.3008 170.709 58.25 169.76 59.4208 169.76Z" fill="white"/>
<path d="M80.6404 171.88C80.6404 170.71 79.6904 169.76 78.5204 169.76C77.3504 169.76 76.4004 170.71 76.4004 171.88C76.4004 173.05 77.3504 174 78.5204 174C79.6904 174 80.6404 173.05 80.6404 171.88Z" fill="white"/>
<path d="M2.12 152.79C3.29084 152.79 4.23999 153.739 4.23999 154.91C4.23999 156.081 3.29084 157.03 2.12 157.03C0.949151 157.03 0 156.081 0 154.91C0 153.739 0.949151 152.79 2.12 152.79Z" fill="white"/>
<path d="M21.2196 152.79C22.3904 152.79 23.3396 153.739 23.3396 154.91C23.3396 156.081 22.3904 157.03 21.2196 157.03C20.0488 157.03 19.0996 156.081 19.0996 154.91C19.0996 153.739 20.0488 152.79 21.2196 152.79Z" fill="white"/>
<path d="M40.3192 152.79C41.4901 152.79 42.4392 153.739 42.4392 154.91C42.4392 156.081 41.4901 157.03 40.3192 157.03C39.1484 157.03 38.1992 156.081 38.1992 154.91C38.1992 153.739 39.1484 152.79 40.3192 152.79Z" fill="white"/>
<path d="M59.4208 152.79C60.5917 152.79 61.5408 153.739 61.5408 154.91C61.5408 156.081 60.5917 157.03 59.4208 157.03C58.25 157.03 57.3008 156.081 57.3008 154.91C57.3008 153.739 58.25 152.79 59.4208 152.79Z" fill="white"/>
<path d="M80.6404 154.91C80.6404 153.74 79.6904 152.79 78.5204 152.79C77.3504 152.79 76.4004 153.74 76.4004 154.91C76.4004 156.08 77.3504 157.03 78.5204 157.03C79.6904 157.03 80.6404 156.08 80.6404 154.91Z" fill="white"/>
<path d="M4.23999 137.93C4.23999 136.76 3.29 135.81 2.12 135.81C0.949995 135.81 0 136.76 0 137.93C0 139.1 0.949995 140.05 2.12 140.05C3.29 140.05 4.23999 139.1 4.23999 137.93Z" fill="white"/>
<path d="M23.3396 137.93C23.3396 136.76 22.3896 135.81 21.2196 135.81C20.0496 135.81 19.0996 136.76 19.0996 137.93C19.0996 139.1 20.0496 140.05 21.2196 140.05C22.3896 140.05 23.3396 139.1 23.3396 137.93Z" fill="white"/>
<path d="M42.4392 137.93C42.4392 136.76 41.4892 135.81 40.3192 135.81C39.1492 135.81 38.1992 136.76 38.1992 137.93C38.1992 139.1 39.1492 140.05 40.3192 140.05C41.4892 140.05 42.4392 139.1 42.4392 137.93Z" fill="white"/>
<path d="M61.5408 137.93C61.5408 136.76 60.5908 135.81 59.4208 135.81C58.2508 135.81 57.3008 136.76 57.3008 137.93C57.3008 139.1 58.2508 140.05 59.4208 140.05C60.5908 140.05 61.5408 139.1 61.5408 137.93Z" fill="white"/>
<path d="M80.6404 137.93C80.6404 136.76 79.6904 135.81 78.5204 135.81C77.3504 135.81 76.4004 136.76 76.4004 137.93C76.4004 139.1 77.3504 140.05 78.5204 140.05C79.6904 140.05 80.6404 139.1 80.6404 137.93Z" fill="white"/>
<path d="M4.23999 120.95C4.23999 119.78 3.29 118.83 2.12 118.83C0.949995 118.83 0 119.78 0 120.95C0 122.12 0.949995 123.07 2.12 123.07C3.29 123.08 4.23999 122.13 4.23999 120.95Z" fill="white"/>
<path d="M23.3396 120.95C23.3396 119.78 22.3896 118.83 21.2196 118.83C20.0496 118.83 19.0996 119.78 19.0996 120.95C19.0996 122.12 20.0496 123.07 21.2196 123.07C22.3896 123.08 23.3396 122.13 23.3396 120.95Z" fill="white"/>
<path d="M42.4392 120.95C42.4392 119.78 41.4892 118.83 40.3192 118.83C39.1492 118.83 38.1992 119.78 38.1992 120.95C38.1992 122.12 39.1492 123.07 40.3192 123.07C41.4892 123.08 42.4392 122.13 42.4392 120.95Z" fill="white"/>
<path d="M61.5408 120.95C61.5408 119.78 60.5908 118.83 59.4208 118.83C58.2508 118.83 57.3008 119.78 57.3008 120.95C57.3008 122.12 58.2508 123.07 59.4208 123.07C60.5908 123.08 61.5408 122.13 61.5408 120.95Z" fill="white"/>
<path d="M80.6404 120.95C80.6404 119.78 79.6904 118.83 78.5204 118.83C77.3504 118.83 76.4004 119.78 76.4004 120.95C76.4004 122.12 77.3504 123.07 78.5204 123.07C79.6904 123.08 80.6404 122.13 80.6404 120.95Z" fill="white"/>
<path d="M2.12 101.86C3.29084 101.86 4.23999 102.809 4.23999 103.98C4.23999 105.151 3.29084 106.1 2.12 106.1C0.949151 106.1 0 105.151 0 103.98C0 102.809 0.949151 101.86 2.12 101.86Z" fill="white"/>
<path d="M21.2196 101.86C22.3904 101.86 23.3396 102.809 23.3396 103.98C23.3396 105.151 22.3904 106.1 21.2196 106.1C20.0488 106.1 19.0996 105.151 19.0996 103.98C19.0996 102.809 20.0488 101.86 21.2196 101.86Z" fill="white"/>
<path d="M40.3192 101.86C41.4901 101.86 42.4392 102.809 42.4392 103.98C42.4392 105.151 41.4901 106.1 40.3192 106.1C39.1484 106.1 38.1992 105.151 38.1992 103.98C38.1992 102.809 39.1484 101.86 40.3192 101.86Z" fill="white"/>
<path d="M59.4208 101.86C60.5917 101.86 61.5408 102.809 61.5408 103.98C61.5408 105.151 60.5917 106.1 59.4208 106.1C58.25 106.1 57.3008 105.151 57.3008 103.98C57.3008 102.809 58.25 101.86 59.4208 101.86Z" fill="white"/>
<path d="M80.6404 103.98C80.6404 102.81 79.6904 101.86 78.5204 101.86C77.3504 101.86 76.4004 102.81 76.4004 103.98C76.4004 105.15 77.3504 106.1 78.5204 106.1C79.6904 106.1 80.6404 105.15 80.6404 103.98Z" fill="white"/>
<path d="M2.12 84.88C3.29084 84.88 4.23999 85.8292 4.23999 87C4.23999 88.1708 3.29084 89.12 2.12 89.12C0.949151 89.12 0 88.1708 0 87C0 85.8292 0.949151 84.88 2.12 84.88Z" fill="white"/>
<path d="M21.2196 84.88C22.3904 84.88 23.3396 85.8292 23.3396 87C23.3396 88.1708 22.3904 89.12 21.2196 89.12C20.0488 89.12 19.0996 88.1708 19.0996 87C19.0996 85.8292 20.0488 84.88 21.2196 84.88Z" fill="white"/>
<path d="M40.3192 84.88C41.4901 84.88 42.4392 85.8292 42.4392 87C42.4392 88.1708 41.4901 89.12 40.3192 89.12C39.1484 89.12 38.1992 88.1708 38.1992 87C38.1992 85.8292 39.1484 84.88 40.3192 84.88Z" fill="white"/>
<path d="M59.4208 84.88C60.5917 84.88 61.5408 85.8292 61.5408 87C61.5408 88.1708 60.5917 89.12 59.4208 89.12C58.25 89.12 57.3008 88.1708 57.3008 87C57.3008 85.8292 58.25 84.88 59.4208 84.88Z" fill="white"/>
<path d="M80.6404 87C80.6404 85.83 79.6904 84.88 78.5204 84.88C77.3504 84.88 76.4004 85.83 76.4004 87C76.4004 88.17 77.3504 89.12 78.5204 89.12C79.6904 89.12 80.6404 88.17 80.6404 87Z" fill="white"/>
<path d="M4.23999 70.0199C4.23999 68.8499 3.29 67.8999 2.12 67.8999C0.949995 67.8999 0 68.8499 0 70.0199C0 71.1899 0.949995 72.1399 2.12 72.1399C3.29 72.1499 4.23999 71.1999 4.23999 70.0199Z" fill="white"/>
<path d="M23.3396 70.0199C23.3396 68.8499 22.3896 67.8999 21.2196 67.8999C20.0496 67.8999 19.0996 68.8499 19.0996 70.0199C19.0996 71.1899 20.0496 72.1399 21.2196 72.1399C22.3896 72.1499 23.3396 71.1999 23.3396 70.0199Z" fill="white"/>
<path d="M42.4392 70.0199C42.4392 68.8499 41.4892 67.8999 40.3192 67.8999C39.1492 67.8999 38.1992 68.8499 38.1992 70.0199C38.1992 71.1899 39.1492 72.1399 40.3192 72.1399C41.4892 72.1499 42.4392 71.1999 42.4392 70.0199Z" fill="white"/>
<path d="M61.5408 70.0199C61.5408 68.8499 60.5908 67.8999 59.4208 67.8999C58.2508 67.8999 57.3008 68.8499 57.3008 70.0199C57.3008 71.1899 58.2508 72.1399 59.4208 72.1399C60.5908 72.1499 61.5408 71.1999 61.5408 70.0199Z" fill="white"/>
<path d="M80.6404 70.0199C80.6404 68.8499 79.6904 67.8999 78.5204 67.8999C77.3504 67.8999 76.4004 68.8499 76.4004 70.0199C76.4004 71.1899 77.3504 72.1399 78.5204 72.1399C79.6904 72.1499 80.6404 71.1999 80.6404 70.0199Z" fill="white"/>
<path d="M4.23999 53.0499C4.23999 51.8799 3.29 50.9299 2.12 50.9299C0.949995 50.9299 0 51.8799 0 53.0499C0 54.2199 0.949995 55.1699 2.12 55.1699C3.29 55.1699 4.23999 54.2199 4.23999 53.0499Z" fill="white"/>
<path d="M23.3396 53.0499C23.3396 51.8799 22.3896 50.9299 21.2196 50.9299C20.0496 50.9299 19.0996 51.8799 19.0996 53.0499C19.0996 54.2199 20.0496 55.1699 21.2196 55.1699C22.3896 55.1699 23.3396 54.2199 23.3396 53.0499Z" fill="white"/>
<path d="M42.4392 53.0499C42.4392 51.8799 41.4892 50.9299 40.3192 50.9299C39.1492 50.9299 38.1992 51.8799 38.1992 53.0499C38.1992 54.2199 39.1492 55.1699 40.3192 55.1699C41.4892 55.1699 42.4392 54.2199 42.4392 53.0499Z" fill="white"/>
<path d="M61.5408 53.0499C61.5408 51.8799 60.5908 50.9299 59.4208 50.9299C58.2508 50.9299 57.3008 51.8799 57.3008 53.0499C57.3008 54.2199 58.2508 55.1699 59.4208 55.1699C60.5908 55.1699 61.5408 54.2199 61.5408 53.0499Z" fill="white"/>
<path d="M80.6404 53.0499C80.6404 51.8799 79.6904 50.9299 78.5204 50.9299C77.3504 50.9299 76.4004 51.8799 76.4004 53.0499C76.4004 54.2199 77.3504 55.1699 78.5204 55.1699C79.6904 55.1699 80.6404 54.2199 80.6404 53.0499Z" fill="white"/>
<path d="M2.12 33.95C3.29084 33.95 4.23999 34.8991 4.23999 36.0699C4.23999 37.2408 3.29084 38.1899 2.12 38.1899C0.949151 38.1899 0 37.2408 0 36.0699C0 34.8991 0.949151 33.95 2.12 33.95Z" fill="white"/>
<path d="M21.2196 33.95C22.3904 33.95 23.3396 34.8991 23.3396 36.0699C23.3396 37.2408 22.3904 38.1899 21.2196 38.1899C20.0488 38.1899 19.0996 37.2408 19.0996 36.0699C19.0996 34.8991 20.0488 33.95 21.2196 33.95Z" fill="white"/>
<path d="M40.3192 33.95C41.4901 33.95 42.4392 34.8991 42.4392 36.0699C42.4392 37.2408 41.4901 38.1899 40.3192 38.1899C39.1484 38.1899 38.1992 37.2408 38.1992 36.0699C38.1992 34.8991 39.1484 33.95 40.3192 33.95Z" fill="white"/>
<path d="M59.4208 33.95C60.5917 33.95 61.5408 34.8991 61.5408 36.0699C61.5408 37.2408 60.5917 38.1899 59.4208 38.1899C58.25 38.1899 57.3008 37.2408 57.3008 36.0699C57.3008 34.8991 58.25 33.95 59.4208 33.95Z" fill="white"/>
<path d="M80.6404 36.0699C80.6404 34.8999 79.6904 33.95 78.5204 33.95C77.3504 33.95 76.4004 34.8999 76.4004 36.0699C76.4004 37.2399 77.3504 38.1899 78.5204 38.1899C79.6904 38.1899 80.6404 37.2399 80.6404 36.0699Z" fill="white"/>
<path d="M2.12 16.97C3.29084 16.97 4.23999 17.9191 4.23999 19.09C4.23999 20.2608 3.29084 21.21 2.12 21.21C0.949151 21.21 0 20.2608 0 19.09C0 17.9191 0.949151 16.97 2.12 16.97Z" fill="white"/>
<path d="M21.2196 16.97C22.3904 16.97 23.3396 17.9191 23.3396 19.09C23.3396 20.2608 22.3904 21.21 21.2196 21.21C20.0488 21.21 19.0996 20.2608 19.0996 19.09C19.0996 17.9191 20.0488 16.97 21.2196 16.97Z" fill="white"/>
<path d="M40.3192 16.97C41.4901 16.97 42.4392 17.9191 42.4392 19.09C42.4392 20.2608 41.4901 21.21 40.3192 21.21C39.1484 21.21 38.1992 20.2608 38.1992 19.09C38.1992 17.9191 39.1484 16.97 40.3192 16.97Z" fill="white"/>
<path d="M59.4208 16.97C60.5917 16.97 61.5408 17.9191 61.5408 19.09C61.5408 20.2608 60.5917 21.21 59.4208 21.21C58.25 21.21 57.3008 20.2608 57.3008 19.09C57.3008 17.9191 58.25 16.97 59.4208 16.97Z" fill="white"/>
<path d="M80.6404 19.09C80.6404 17.92 79.6904 16.97 78.5204 16.97C77.3504 16.97 76.4004 17.92 76.4004 19.09C76.4004 20.26 77.3504 21.21 78.5204 21.21C79.6904 21.22 80.6404 20.27 80.6404 19.09Z" fill="white"/>
<path d="M4.23999 2.12C4.23999 0.949995 3.29 0 2.12 0C0.949995 0 0 0.949995 0 2.12C0 3.29 0.949995 4.23999 2.12 4.23999C3.29 4.23999 4.23999 3.29 4.23999 2.12Z" fill="white"/>
<path d="M23.3396 2.12C23.3396 0.949995 22.3896 0 21.2196 0C20.0496 0 19.0996 0.949995 19.0996 2.12C19.0996 3.29 20.0496 4.23999 21.2196 4.23999C22.3896 4.23999 23.3396 3.29 23.3396 2.12Z" fill="white"/>
<path d="M42.4392 2.12C42.4392 0.949995 41.4892 0 40.3192 0C39.1492 0 38.1992 0.949995 38.1992 2.12C38.1992 3.29 39.1492 4.23999 40.3192 4.23999C41.4892 4.23999 42.4392 3.29 42.4392 2.12Z" fill="white"/>
<path d="M61.5408 2.12C61.5408 0.949995 60.5908 0 59.4208 0C58.2508 0 57.3008 0.949995 57.3008 2.12C57.3008 3.29 58.2508 4.23999 59.4208 4.23999C60.5908 4.23999 61.5408 3.29 61.5408 2.12Z" fill="white"/>
<path d="M80.6404 2.12C80.6404 0.949995 79.6904 0 78.5204 0C77.3504 0 76.4004 0.949995 76.4004 2.12C76.4004 3.29 77.3504 4.23999 78.5204 4.23999C79.6904 4.23999 80.6404 3.29 80.6404 2.12Z" fill="white"/>
</svg>
